<svg xmlns="http://www.w3.org/2000/svg" width="61.824" height="87.543" viewBox="0 0 61.824 87.543">
  <g id="css3" transform="translate(-19.67 -1)">
    <path id="Path_46" data-name="Path 46" d="M19.67,26,25.3,89.1,50.544,96.11l25.317-7.017L81.494,26H19.67ZM67.931,61.206,66.292,76.472l.006,1.307-15.717,4.39h0l-.013.01L34.727,77.839,33.655,65.747h7.769l.551,6.113,8.61,2.3,0,.01v-.022l8.643-2.437.912-10.145H42.071l-.155-1.642-.353-3.938-.185-2.091H60.824l.707-7.67H31.914l-.156-1.805-.353-4.2-.185-2.358H69.99L69.8,40.179,67.931,61.206" transform="translate(0 -7.567)" fill="#242424"/>
    <path id="Path_47" data-name="Path 47" d="M73.563,10.326,68.578,4.487h4.985V1H62.406V4.042l5.85,5.325h-5.85v3.487H73.563Zm-13.249,0L55.567,4.487h4.747V1H49.854V4.042l5.392,5.325H49.854v3.487h10.46ZM47.762,9.368H42.184V4.487h5.579V1H38V12.854h9.762Z" transform="translate(-5.548)" fill="#242424"/>
  </g>
</svg>
