<svg xmlns="http://www.w3.org/2000/svg" width="124.84" height="52.145" viewBox="0 0 124.84 52.145">
  <g id="git" transform="translate(-1.58 -37.928)">
    <path id="Path_21" data-name="Path 21" d="M76.4,55.676c-2.737,0-4.775,1.344-4.775,4.579,0,2.437,1.343,4.129,4.628,4.129,2.784,0,4.676-1.641,4.676-4.23,0-2.934-1.693-4.478-4.529-4.478Zm-5.471,22.84a4.411,4.411,0,0,0-1.294,2.637c0,1.989,2.536,2.587,6.021,2.587,2.885,0,6.816-.2,6.816-2.885,0-1.6-1.892-1.693-4.281-1.843l-7.262-.5Zm14.725-22.69a7.887,7.887,0,0,1,1.842,5.026c0,5.522-4.329,8.756-10.6,8.756a15.8,15.8,0,0,1-3.932-.447L71.322,71.8l4.875.3c8.608.549,13.682.8,13.682,7.413,0,5.723-5.024,8.955-13.682,8.955-9.006,0-12.438-2.289-12.438-6.218,0-2.24,1-3.431,2.737-5.076a3.314,3.314,0,0,1-2.189-3.281,4.465,4.465,0,0,1,1.443-3.036c.9-.944,1.891-1.891,3.084-2.985A7.945,7.945,0,0,1,64.556,60.4c0-5.721,3.781-9.65,11.393-9.65a17.022,17.022,0,0,1,4.578.5h9.7v4.228l-4.579.347Zm13.332-9.04a4.086,4.086,0,0,1-4.479-4.48c0-2.833,1.642-4.377,4.479-4.377,2.886,0,4.527,1.543,4.527,4.377S101.869,46.786,98.983,46.786Zm-6.42,29.9V72.757l2.539-.348c.7-.1.795-.249.795-1V56.785c0-.546-.148-.9-.647-1.044l-2.687-.946.547-4.028h10.3V71.413c0,.8.048.9.8,1l2.538.348v3.929H92.563Zm33.857-1.93a19.916,19.916,0,0,1-8.112,1.99c-5.92,0-8.158-2.386-8.158-8.011V55.7c0-.3,0-.5-.4-.5h-3.482V50.775c4.38-.5,6.12-2.688,6.667-8.111h4.728v7.067c0,.347,0,.5.4.5h7.015V55.2h-7.413v11.89c0,2.935.7,4.079,3.383,4.079a11.841,11.841,0,0,0,4.03-.795Z" fill="#242424"/>
    <path id="Path_22" data-name="Path 22" d="M52.7,61.7,29.951,38.952a3.355,3.355,0,0,0-4.744,0l-4.724,4.724,5.991,5.992a3.986,3.986,0,0,1,5.047,5.081L37.3,60.524a3.987,3.987,0,1,1-2.391,2.251l-5.386-5.386V71.563a3.984,3.984,0,1,1-3.283-.117V57.141a3.945,3.945,0,0,1-1.307-.871,3.99,3.99,0,0,1-.86-4.365L18.162,46l-15.6,15.6a3.356,3.356,0,0,0,0,4.747L25.312,89.09a3.357,3.357,0,0,0,4.746,0L52.7,66.446a3.355,3.355,0,0,0,0-4.746Z" fill="#242424"/>
    <path id="Path_23" data-name="Path 23" d="M1.58,37.928H126.42V90.071H1.58Z" fill="none"/>
  </g>
</svg>
