<svg xmlns="http://www.w3.org/2000/svg" width="59" height="58.603" viewBox="0 0 59 58.603">
  <g id="github" transform="translate(-0.328 -1.512)">
    <g id="Group_2" data-name="Group 2" transform="translate(10.116 1.512)">
      <path id="Path_24" data-name="Path 24" d="M41.167,1.512a19.714,19.714,0,0,0-6.232,38.416c.985.183,1.347-.428,1.347-.948,0-.47-.019-2.023-.027-3.669-5.484,1.192-6.641-2.326-6.641-2.326A5.22,5.22,0,0,0,27.425,30.1c-1.788-1.223.134-1.2.134-1.2a4.144,4.144,0,0,1,3.022,2.032,4.2,4.2,0,0,0,5.736,1.638,4.2,4.2,0,0,1,1.252-2.636c-4.378-.5-8.981-2.189-8.981-9.742A7.629,7.629,0,0,1,30.62,14.9a7.084,7.084,0,0,1,.191-5.217s1.655-.529,5.421,2.021a18.694,18.694,0,0,1,9.872,0c3.762-2.55,5.415-2.021,5.415-2.021a7.075,7.075,0,0,1,.194,5.217,7.612,7.612,0,0,1,2.028,5.291c0,7.571-4.611,9.238-9,9.725a4.713,4.713,0,0,1,1.337,3.651c0,2.637-.022,4.76-.022,5.409,0,.524.355,1.139,1.354.945A19.713,19.713,0,0,0,41.167,1.512Z" transform="translate(-21.455 -1.512)" fill="#242424" fill-rule="evenodd"/>
      <path id="Path_25" data-name="Path 25" d="M36.958,62.209c-.044.1-.2.127-.338.06s-.223-.2-.177-.3.2-.128.34-.061.225.2.176.3Zm-.243-.18M37.756,63.1c-.094.087-.278.046-.4-.092s-.153-.322-.057-.41.275-.046.4.091.155.321.057.41Zm-.188-.2.965,1.337c-.12.084-.318.006-.44-.17s-.121-.385,0-.469.317-.008.44.165.121.389,0,.474Zm0,0,1.065,1.1c-.108.119-.338.087-.506-.076a.379.379,0,0,1-.112-.5c.11-.119.341-.086.511.076s.223.385.108.5Zm0,0,1.47.637c-.048.155-.27.225-.493.159s-.369-.248-.324-.4.27-.228.494-.158.368.246.322.4Zm0,0,1.612.118c.006.162-.183.3-.418.3s-.426-.126-.429-.286.185-.3.421-.3.426.126.426.287Zm0,0,1.5-.255c.028.158-.134.322-.367.365s-.44-.056-.47-.213.138-.324.366-.367.442.055.471.216Zm0,0" transform="translate(-29.492 -33.908)" fill="#242424"/>
    </g>
    <g id="Group_3" data-name="Group 3" transform="translate(0.328 44.16)">
      <path id="Path_26" data-name="Path 26" d="M11.692,100.391H6.734a.232.232,0,0,0-.232.232v2.424a.232.232,0,0,0,.232.232H8.668v3.012a5.851,5.851,0,0,1-1.636.148c-1.416,0-3.395-.517-3.395-4.869s2.061-4.925,4-4.925a7.842,7.842,0,0,1,2.855.437.235.235,0,0,0,.278-.228l.553-2.342a.217.217,0,0,0-.089-.181c-.187-.133-1.324-.769-4.2-.769-3.31,0-6.705,1.408-6.705,8.177s3.887,7.778,7.163,7.778a8.063,8.063,0,0,0,4.357-1.159.2.2,0,0,0,.075-.176v-7.559a.232.232,0,0,0-.232-.232ZM37.012,94.14H34.22a.232.232,0,0,0-.231.233v5.395H29.639V94.373a.232.232,0,0,0-.23-.233H26.617a.232.232,0,0,0-.231.233v14.608a.232.232,0,0,0,.231.233h2.791a.232.232,0,0,0,.23-.234v-6.248h4.351l-.007,6.248a.233.233,0,0,0,.232.234h2.8a.232.232,0,0,0,.23-.234V94.373a.23.23,0,0,0-.23-.233Zm-21.853.332a1.818,1.818,0,1,0,1.8,1.818A1.808,1.808,0,0,0,15.16,94.472Zm1.37,4.452H13.747a.266.266,0,0,0-.242.259v9.661c0,.284.177.368.406.368h2.507c.276,0,.343-.135.343-.373V99.157a.232.232,0,0,0-.231-.233Zm31.323.022H45.081a.232.232,0,0,0-.23.234v7.163a3.134,3.134,0,0,1-1.7.514c-1,0-1.263-.453-1.263-1.431V99.179a.232.232,0,0,0-.23-.234H38.844a.233.233,0,0,0-.231.234V105.9c0,2.9,1.619,3.616,3.846,3.616a6.49,6.49,0,0,0,3.3-1.01,5.644,5.644,0,0,0,.1.6.245.245,0,0,0,.2.126l1.788-.008a.233.233,0,0,0,.232-.234V99.178a.234.234,0,0,0-.232-.233Zm7.571-.328a5.21,5.21,0,0,0-2.644.7V94.373a.232.232,0,0,0-.23-.233h-2.8a.232.232,0,0,0-.232.233v14.608a.232.232,0,0,0,.232.233h1.942a.23.23,0,0,0,.2-.124,4.625,4.625,0,0,0,.118-.674,5.009,5.009,0,0,0,3.312,1.084c2.544,0,4-1.29,4-5.792s-2.33-5.091-3.9-5.091Zm-1.093,8.23a3.322,3.322,0,0,1-1.612-.465v-4.626a3.7,3.7,0,0,1,1.432-.465c1-.089,1.959.212,1.959,2.592,0,2.51-.433,3.005-1.778,2.964Zm-29.508-.055c-.122,0-.434.05-.755.05-1.029,0-1.377-.478-1.377-1.1v-4.108h2.094a.232.232,0,0,0,.232-.234v-2.25a.232.232,0,0,0-.232-.233H22.689l0-2.766c0-.105-.054-.158-.175-.158H19.657c-.11,0-.17.049-.17.155v2.859s-1.43.345-1.527.373a.232.232,0,0,0-.167.222v1.8a.232.232,0,0,0,.23.233h1.463v4.322c0,3.211,2.252,3.526,3.771,3.526a6.36,6.36,0,0,0,1.661-.273.216.216,0,0,0,.131-.21l0-1.976a.236.236,0,0,0-.232-.233Z" transform="translate(-0.328 -93.562)" fill="#242424"/>
    </g>
  </g>
</svg>
