<svg xmlns="http://www.w3.org/2000/svg" width="62.553" height="87.974" viewBox="0 0 62.553 87.974">
  <path id="htm5" d="M19.569,19.488l5.693,63.3L50.807,89.6l25.616-6.687,5.7-63.426ZM70.281,33.9l-.357,4.107-.157,1.9H39.8l.716,8.447H69.055l-.191,1.57L67.024,70.27l-.135,1.19L50.846,75.778v0l-.019.008L34.793,71.618,33.7,59.612h7.862l.557,5.955,8.718,2.21,0-.165v.008l8.737-1.865.912-9.664H33.355L31.43,34.386l-.188-2.227H70.469L70.281,33.9ZM25.473,1.627H29.43V5.538h3.621V1.627H37.01V13.469H33.052V9.5h-3.62v3.965H25.473V1.627ZM42.214,5.554H38.729V1.627H49.658V5.554H46.172v7.914H42.214V5.554Zm9.179-3.927h4.126l2.539,4.161,2.536-4.161h4.129V13.469H60.78V7.6l-2.722,4.21h-.069L55.265,7.6v5.869H51.392V1.627Zm15.3,0h3.959V9.555h5.566v3.915H66.693V1.627Z" transform="translate(-19.569 -1.627)" fill="#242424"/>
</svg>
