<svg xmlns="http://www.w3.org/2000/svg" width="88" height="88" viewBox="0 0 88 88">
  <path id="javascript" d="M2,1V89H90V1ZM48.548,75.985A10.406,10.406,0,0,1,41.9,81.2a16,16,0,0,1-11.779-1.45,13.246,13.246,0,0,1-4.858-5.562l6.7-4.1a4.241,4.241,0,0,1,.47.754,7.077,7.077,0,0,0,3.041,3.157c1.423.486,4.549.8,5.755-1.709.737-1.274.5-5.37.5-9.9,0-7.121.032-14.212.032-21.252h8.243c0,7.744.042,15.078,0,22.635C50.023,68.4,50.425,72.525,48.548,75.985Zm34.2-2.329C79.879,83.457,63.9,83.776,57.52,77.3a14.9,14.9,0,0,1-3-4.08c3.393-1.951,3.393-1.951,6.694-3.861,1.793,2.756,3.451,4.272,6.434,4.892,4.047.494,8.118-.9,7.2-5.194-.938-3.51-8.286-4.364-13.287-8.118C56.49,57.53,55.3,49.245,59.472,44.511a11.777,11.777,0,0,1,6.249-3.685l2.6-.336c4.985-.1,8.1,1.216,10.388,3.77a16.452,16.452,0,0,1,2.127,2.848c-2.655,1.692-2.647,1.676-6.451,4.139A6.137,6.137,0,0,0,70.8,47.921c-2.212-.67-5,.058-5.58,2.4a4.55,4.55,0,0,0,.16,2.58c.9,2.044,3.9,2.932,6.6,4.172,7.766,3.15,10.388,6.527,11.033,10.547a12.089,12.089,0,0,1-.268,6.041Z" transform="translate(-2 -1)" fill="#242424"/>
</svg>
