<svg xmlns="http://www.w3.org/2000/svg" width="82.41" height="87.287" viewBox="0 0 82.41 87.287">
  <path id="jquery" d="M36.03,56.779l.138.067.246.118c.313.149.63.3.949.439l.2.089q.549.241,1.107.46l.27.106c.344.134.694.264,1.044.388l.131.045c.385.134.773.259,1.165.381l.282.084a11.31,11.31,0,0,0,1.2.34c26.092,4.757,33.67-15.68,33.67-15.68C70.069,51.91,58.77,54.1,48.065,51.662c-.405-.091-.8-.218-1.195-.335l-.3-.09q-.579-.178-1.151-.374l-.158-.057c-.341-.12-.679-.247-1.014-.376l-.284-.111q-.552-.217-1.095-.455l-.219-.1c-.31-.141-.618-.283-.924-.43l-.268-.128c-.24-.117-.478-.242-.715-.364l-.477-.25c-.289-.155-.573-.315-.856-.48l-.289-.161c-.376-.222-.748-.451-1.116-.684l-.3-.2c-.267-.172-.532-.347-.794-.527l-.256-.18q-.379-.268-.75-.542l-.333-.252c-.227-.173-.453-.348-.677-.528l-.3-.243c-.284-.234-.565-.469-.844-.71l-.092-.078c-.3-.263-.6-.533-.888-.8l-.25-.241c-.216-.2-.428-.412-.637-.624l-.25-.25q-.4-.408-.782-.827l-.039-.041c-.271-.3-.535-.6-.793-.9l-.208-.247c-.193-.232-.384-.468-.57-.705l-.209-.26c-.225-.291-.444-.582-.659-.877C22.434,30.122,20.3,18.94,25.049,9.758L20.838,15.1c-5.4,7.754-4.723,17.843-.6,26.083l.3.586.193.371.12.213.215.385q.192.338.393.674l.225.37c.148.24.3.477.457.714l.194.3c.215.32.435.64.661.954l.019.025.111.151c.2.271.4.537.6.8l.227.288c.182.229.368.458.557.685l.213.253c.253.3.512.6.776.887l.016.016.03.033c.257.281.521.555.788.831l.253.255c.207.208.417.413.63.617l.258.245c.283.267.57.529.862.786l.014.011.15.128c.258.223.52.445.784.662l.325.258q.323.259.654.511l.349.266q.364.268.733.526l.268.19.074.052c.234.161.473.315.712.47l.308.206c.366.232.739.461,1.115.682l.308.174c.277.159.555.315.837.468l.463.24.6.312Zm2.636-26.264a13.706,13.706,0,0,0,2.008,2.508c.281.31.575.611.875.909l.231.227c.292.283.588.56.894.831l.037.031.009.009c.339.3.689.582,1.044.864L44,36.08c.357.273.72.542,1.093.8l.032.024.5.328.237.157c.266.17.535.337.81.5l.114.066c.236.136.476.271.716.4l.254.133.5.259.076.034c.344.169.691.332,1.045.487l.231.095c.283.12.569.238.856.348l.367.134c.261.1.522.186.787.273l.356.114a8.7,8.7,0,0,0,1.137.328c20.145,3.338,24.8-12.173,24.8-12.173-4.193,6.038-12.311,8.918-20.975,6.67q-.577-.152-1.141-.33l-.343-.111q-.4-.13-.8-.275l-.36-.134q-.434-.167-.859-.346l-.231-.1q-.533-.232-1.051-.489L51.62,33l-.3-.156c-.224-.121-.447-.248-.667-.376l-.159-.091c-.273-.159-.542-.323-.808-.492l-.243-.163-.522-.345c-.372-.256-.733-.524-1.089-.8l-.245-.193a24.288,24.288,0,0,1-8.228-11.726,18.2,18.2,0,0,1,1.42-14.6l-3.188,4.5c-3.9,5.614-3.69,13.131-.646,19.069a24.774,24.774,0,0,0,1.725,2.88ZM59.9,23.569l.5.173.221.07a6.323,6.323,0,0,0,.717.207c11.123,2.149,14.141-5.708,14.944-6.864-2.643,3.805-7.084,4.718-12.534,3.4-.43-.1-.9-.259-1.319-.407a16.353,16.353,0,0,1-1.565-.65,16.187,16.187,0,0,1-2.745-1.675c-4.877-3.7-7.906-10.758-4.724-16.507L51.671,3.685a11.741,11.741,0,0,0-.93,11.327A15.953,15.953,0,0,0,59.9,23.569ZM49.162,69.11H46.145a.4.4,0,0,0-.369.3l-1.071,4.954-1.071,4.954a.4.4,0,0,1-.368.3H41.132c-2.112,0-1.868-1.461-1.435-3.463l.013-.061.047-.253.009-.047.1-.514.1-.55.11-.56.487-2.378.488-2.378a.24.24,0,0,0-.243-.3h-3.1a.393.393,0,0,0-.367.3l-.666,3.158-.665,3.159v0l-.061.294c-.767,3.5-.564,6.838,3.6,6.943l.121,0h6.54a.4.4,0,0,0,.368-.3l1.41-6.63,1.41-6.631A.237.237,0,0,0,49.162,69.11Zm-32.3-.035H13.547a.4.4,0,0,0-.372.3l-.314,1.386-.314,1.386a.233.233,0,0,0,.238.3h3.338a.4.4,0,0,0,.37-.3l.3-1.385.3-1.385A.236.236,0,0,0,16.859,69.075ZM15.9,73.389H12.559a.4.4,0,0,0-.372.3l-.469,2.077-.468,2.076-.131.6-.45,2.12-.45,2.121c-.035.163-.107.428-.161.586,0,0-.624,1.856-1.672,1.834l-.131,0-.907-.016h0a.4.4,0,0,0-.374.291l-.346,1.455-.345,1.455a.233.233,0,0,0,.233.3c.595.007,1.927.022,2.732.022,2.619,0,4-1.451,4.884-5.627l1.036-4.792.971-4.495a.236.236,0,0,0-.241-.3Zm61.469-1.124-.138-.572-.136-.585-.069-.3c-.271-1.054-1.067-1.662-2.8-1.662l-2.691,0-2.478,0H66.269a.394.394,0,0,0-.368.3l-.123.582-.146.688-.041.193-1.256,5.882-1.192,5.583a1.3,1.3,0,0,0-.027.447c.02.082.342.149.509.149h2.515a1.578,1.578,0,0,0,.471-.067c.091-.037.226-.366.26-.53l.447-2.212.448-2.213v0l.06-.295.542-2.541.479-2.244a.4.4,0,0,1,.368-.3l7.915,0a.23.23,0,0,0,.236-.3ZM87.556,67.1l-.61,0H84.414a.645.645,0,0,0-.476.252l-5.6,8.207c-.094.138-.2.118-.239-.044l-.413-1.808a.4.4,0,0,0-.373-.3h-3.6a.218.218,0,0,0-.221.292L75.1,79.355a1.341,1.341,0,0,1,.008.588l-.7,2.736a.224.224,0,0,0,.228.295H78.2a.414.414,0,0,0,.38-.295l.7-2.736a1.8,1.8,0,0,1,.259-.539l9.1-12.071c.1-.134.046-.243-.121-.242Zm-28.613,7.08v0a.367.367,0,0,1-.356.315H54.021a.2.2,0,0,1-.215-.24l0-.011h0l0-.015.021-.078a2.861,2.861,0,0,1,2.994-1.92c1.88,0,2.247.917,2.119,1.95ZM57.6,68.907c-5.861,0-7.25,3.558-8.029,7.149-.779,3.66-.712,7.081,5.353,7.081h.961l.728,0h.013c1.6-.006,3.208-.019,3.859-.024a.4.4,0,0,0,.363-.3l.246-1.2.048-.233.293-1.432a.239.239,0,0,0-.243-.3H55.742c-2.169,0-2.813-.576-2.575-2.271h8.721a.359.359,0,0,0,.318-.225l.021-.076h0c1.294-4.882.923-8.169-4.621-8.17ZM29.9,74.159l-.083.292h0l-.658,2.333L28.5,79.116a.426.426,0,0,1-.388.293H24.632c-2.642,0-3.286-2.067-2.642-5.115.643-3.118,1.9-5.056,4.505-5.252,3.555-.268,4.266,2.231,3.407,5.116Zm2.39,5.071a39.063,39.063,0,0,0,2.015-6.291c.509-3.083-1.035-7.555-7-7.555-5.929,0-8.5,4.269-9.486,8.911-.982,4.675.3,8.775,6.2,8.741l4.651-.017L33.019,83a.421.421,0,0,0,.381-.3l.757-2.888a.226.226,0,0,0-.228-.3l-.726,0-.726,0a.186.186,0,0,1-.206-.216Zm29.351-2.67a.2.2,0,1,1-.2-.2A.2.2,0,0,1,61.642,76.56Z" transform="translate(-6.273 -1.312)" fill="#242424"/>
</svg>
