<svg xmlns="http://www.w3.org/2000/svg" width="123.999" height="64.4" viewBox="0 0 123.999 64.4">
  <path id="mysql" d="M2,90.458H6.109V74.235l6.36,14.143c.75,1.712,1.777,2.317,3.792,2.317s3-.605,3.753-2.317l6.36-14.143V90.458h4.108v-16.2a2.468,2.468,0,0,0-1.936-2.739c-3.121-.974-5.215-.131-6.163,1.976L16.142,87.457,10.1,73.5c-.909-2.106-3.042-2.949-6.163-1.976A2.469,2.469,0,0,0,2,74.261v16.2ZM33.9,77.252h4.107V86.19c-.038.485.156,1.625,2.406,1.661,1.148.018,8.862,0,8.934,0V77.208h4.117c.019,0,0,14.514,0,14.574.022,3.58-4.441,4.357-6.5,4.417H33.988V93.435c.022,0,12.963,0,12.995,0,2.645-.279,2.332-1.593,2.331-2.035V90.321H40.583c-4.062-.037-6.65-1.81-6.683-3.85,0-.187.089-9.129,0-9.219ZM56.63,90.458H68.442a9.119,9.119,0,0,0,3.793-.789c1.777-.816,2.646-1.922,2.646-3.372v-3c0-1.185-.987-2.292-2.923-3.028a10.088,10.088,0,0,0-3.517-.605H63.463c-1.659,0-2.449-.5-2.646-1.606a1.19,1.19,0,0,1-.039-.369v-1.87a1.105,1.105,0,0,1,.039-.342c.2-.843.632-1.08,2.094-1.212l.4-.026H75.039V71.5H63.5a11.075,11.075,0,0,0-3.318.342c-2.449.764-3.517,1.975-3.517,4.082v2.4c0,1.844,2.1,3.424,5.61,3.793.4.025.79.053,1.185.053h4.267a2.322,2.322,0,0,1,.435.025c1.3.105,1.856.343,2.252.816a.979.979,0,0,1,.315.737v2.4a1.372,1.372,0,0,1-.592.974,2.913,2.913,0,0,1-1.738.58l-.435.026H56.63v2.738Zm43.881-4.766c0,2.817,2.094,4.4,6.32,4.714.395.026.79.052,1.185.052h10.706V87.72H107.938c-2.41,0-3.318-.606-3.318-2.055V71.5h-4.108V85.692ZM77.5,85.834V76.069c0-2.48,1.742-3.985,5.186-4.46A7.8,7.8,0,0,1,83.8,71.53h7.8a8.332,8.332,0,0,1,1.147.079c3.444.475,5.187,1.979,5.187,4.46v9.765a3.565,3.565,0,0,1-2.445,3.792l4.048,3.653H94.762l-3.274-2.956-3.3.209H83.8a9.075,9.075,0,0,1-2.414-.343c-2.613-.712-3.88-2.085-3.88-4.355Zm4.435-.237a1.787,1.787,0,0,0,.079.423c.237,1.135,1.307,1.768,2.929,1.768h3.732l-3.428-3.1h4.771l2.989,2.7a1.948,1.948,0,0,0,1.041-1.32,1.367,1.367,0,0,0,.039-.4V76.309a1.285,1.285,0,0,0-.039-.37c-.238-1.056-1.307-1.662-2.89-1.662H84.945c-1.82,0-3.008.792-3.008,2.032V85.6Zm40.4-18.645a14.459,14.459,0,0,0-6.1.861c-.469.2-1.216.2-1.292.79.257.271.3.674.5,1.006a7.92,7.92,0,0,0,1.652,1.938c.647.489,1.315,1.013,2.011,1.437,1.235.754,2.615,1.184,3.806,1.938.7.446,1.4,1.006,2.082,1.509.339.247.565.634,1.006.789v-.071c-.231-.294-.291-.7-.5-1.006l-.934-.934a15.287,15.287,0,0,0-3.3-3.159c-.982-.705-3.18-1.658-3.59-2.8l-.072-.071a15.876,15.876,0,0,0,2.154-.5c1.08-.29,2.045-.215,3.16-.5l1.508-.432v-.286c-.563-.578-.966-1.344-1.58-1.867a46.227,46.227,0,0,0-5.17-3.879c-1-.632-2.241-1.043-3.3-1.579-.356-.181-.984-.274-1.221-.575a15.138,15.138,0,0,1-1.293-2.441c-.9-1.735-1.786-3.631-2.585-5.458a29.308,29.308,0,0,0-1.579-3.59A31.713,31.713,0,0,0,95.478,36.288,14.62,14.62,0,0,0,91.457,35l-2.37-.144a12.679,12.679,0,0,1-1.436-1.077c-1.8-1.138-6.422-3.613-7.756-.358-.842,2.054,1.26,4.058,2.011,5.1a15.453,15.453,0,0,1,1.58,2.369c.248.54.29,1.081.5,1.652a37.817,37.817,0,0,0,1.651,4.236,14.991,14.991,0,0,0,1.149,1.939c.264.36.718.52.789,1.077a8.782,8.782,0,0,0-.718,2.369c-1.122,3.539-.7,7.938.934,10.557.5.805,1.681,2.529,3.3,1.867,1.419-.578,1.1-2.369,1.509-3.95.092-.357.035-.621.215-.861v.072l1.293,2.585a17.6,17.6,0,0,0,4.093,4.237c.746.563,1.334,1.538,2.3,1.867v-.073h-.071c-.188-.291-.479-.411-.719-.646a16.319,16.319,0,0,1-1.651-1.867A43.665,43.665,0,0,1,94.545,60.2c-.5-.966-.94-2.032-1.364-3.016-.164-.379-.162-.953-.5-1.148a14.262,14.262,0,0,0-1.509,2.154,18.474,18.474,0,0,0-.861,4.739L90.165,63c-1-.241-1.352-1.271-1.724-2.154a13.569,13.569,0,0,1-.287-8.4c.214-.666,1.181-2.761.789-3.376-.187-.613-.8-.967-1.148-1.437a11.223,11.223,0,0,1-1.149-2.011c-.77-1.741-1.129-3.7-1.938-5.457a15.955,15.955,0,0,0-1.58-2.441A14.365,14.365,0,0,1,81.4,35.282c-.164-.356-.387-.927-.144-1.293a.571.571,0,0,1,.432-.431c.416-.321,1.576.107,2.01.287a17.574,17.574,0,0,1,3.089,1.58c.468.311.941.911,1.508,1.077h.646c1.011.232,2.144.071,3.088.358a18.671,18.671,0,0,1,4.524,2.155A28.02,28.02,0,0,1,106.4,49.787c.372.715.534,1.4.861,2.154.662,1.528,1.5,3.1,2.154,4.6a21.45,21.45,0,0,0,2.227,4.237c.488.652,2.374,1,3.231,1.364a19.183,19.183,0,0,1,2.154.861c1.087.656,2.141,1.437,3.16,2.155.509.362,2.076,1.149,2.154,1.8Zm-32.1-27.359a5.124,5.124,0,0,0-1.293.144v.071h.072a9.715,9.715,0,0,0,1,1.293l.719,1.508.071-.071a1.752,1.752,0,0,0,.646-1.58c-.179-.188-.205-.423-.359-.646-.2-.3-.6-.468-.861-.719Z" transform="translate(-2 -31.799)" fill="#242424"/>
</svg>
