<svg xmlns="http://www.w3.org/2000/svg" width="153" height="43.211" viewBox="0 0 153 43.211">
  <g id="nodejs" transform="translate(-4.067 -47.074)">
    <path id="Path_15" data-name="Path 15" d="M116.98,86.737a2.111,2.111,0,0,1-1.062-.286l-3.383-2c-.505-.282-.259-.383-.092-.44a6.866,6.866,0,0,0,1.529-.7.258.258,0,0,1,.251.019l2.6,1.543a.333.333,0,0,0,.314,0l10.131-5.848a.317.317,0,0,0,.156-.274V67.061a.327.327,0,0,0-.157-.28l-10.128-5.842a.324.324,0,0,0-.313,0L106.7,66.783a.33.33,0,0,0-.16.278V78.754a.31.31,0,0,0,.16.271l2.775,1.6c1.506.752,2.429-.134,2.429-1.025V68.058a.291.291,0,0,1,.294-.291h1.285a.292.292,0,0,1,.292.291V79.6c0,2.009-1.094,3.162-3,3.162a4.338,4.338,0,0,1-2.333-.633L105.785,80.6a2.14,2.14,0,0,1-1.062-1.848V67.063a2.131,2.131,0,0,1,1.062-1.846l10.131-5.855a2.224,2.224,0,0,1,2.128,0l10.131,5.855a2.138,2.138,0,0,1,1.063,1.846V78.755a2.145,2.145,0,0,1-1.063,1.848l-10.131,5.849a2.108,2.108,0,0,1-1.065.285m3.131-8.056c-4.436,0-5.364-2.036-5.364-3.743a.293.293,0,0,1,.294-.292h1.31a.293.293,0,0,1,.291.248c.2,1.334.788,2.007,3.469,2.007,2.133,0,3.042-.483,3.042-1.616,0-.654-.258-1.137-3.574-1.463-2.772-.274-4.487-.886-4.487-3.106,0-2.044,1.723-3.264,4.611-3.264,3.246,0,4.852,1.127,5.055,3.545a.291.291,0,0,1-.291.318H123.15a.291.291,0,0,1-.285-.228c-.317-1.4-1.082-1.852-3.164-1.852-2.33,0-2.6.813-2.6,1.419,0,.737.319.951,3.466,1.367,3.113.412,4.593.994,4.593,3.184,0,2.212-1.839,3.477-5.048,3.477" transform="translate(27.828 3.322)" fill="#242424"/>
    <path id="Path_16" data-name="Path 16" d="M103.043,70.948a1.3,1.3,0,0,0,.646-1.123v-3a1.3,1.3,0,0,0-.646-1.122L92.367,59.5a1.3,1.3,0,0,0-1.3,0L80.323,65.7a1.3,1.3,0,0,0-.648,1.123v12.4a1.3,1.3,0,0,0,.656,1.128l10.675,6.082a1.3,1.3,0,0,0,1.273.008l6.456-3.589a.648.648,0,0,0,.008-1.13l-10.809-6.2a.647.647,0,0,1-.327-.562V71.07a.645.645,0,0,1,.324-.56L91.3,68.57a.645.645,0,0,1,.647,0l3.366,1.94a.647.647,0,0,1,.326.56v3.058a.649.649,0,0,0,.975.562l6.432-3.743" transform="translate(20.903 3.386)" fill="#242424"/>
    <path id="Path_17" data-name="Path 17" d="M89.457,67.981a.254.254,0,0,1,.249,0l2.061,1.191a.251.251,0,0,1,.124.216v2.381a.249.249,0,0,1-.124.216l-2.061,1.19a.248.248,0,0,1-.249,0l-2.06-1.19a.248.248,0,0,1-.125-.216V69.388a.249.249,0,0,1,.125-.216l2.06-1.191" transform="translate(23.004 5.771)" fill="#242424"/>
    <path id="Path_18" data-name="Path 18" d="M70.555,78.7a.325.325,0,0,1-.162.281L66.7,81.112a.32.32,0,0,1-.324,0l-3.689-2.127a.325.325,0,0,1-.162-.281V74.444a.33.33,0,0,1,.162-.282l3.689-2.129a.317.317,0,0,1,.326,0l3.69,2.129a.329.329,0,0,1,.161.282V78.7Zm1-31.549a.649.649,0,0,0-.965.567V64.208a.453.453,0,0,1-.68.393L67.216,63.05a1.3,1.3,0,0,0-1.3,0l-10.745,6.2a1.3,1.3,0,0,0-.65,1.125V82.782a1.3,1.3,0,0,0,.648,1.125l10.745,6.2a1.3,1.3,0,0,0,1.3,0l10.748-6.2a1.3,1.3,0,0,0,.648-1.125V51.857a1.3,1.3,0,0,0-.665-1.134l-6.4-3.568" transform="translate(13.95 0)" fill="#242424"/>
    <path id="Path_19" data-name="Path 19" d="M40.7,59.445a1.294,1.294,0,0,1,1.3,0l10.745,6.2a1.3,1.3,0,0,1,.648,1.125v12.41a1.3,1.3,0,0,1-.648,1.125L42,86.508a1.3,1.3,0,0,1-1.3,0L29.963,80.3a1.3,1.3,0,0,1-.648-1.125V66.768a1.3,1.3,0,0,1,.648-1.123l10.741-6.2" transform="translate(6.98 3.372)" fill="#242424"/>
    <path id="Path_20" data-name="Path 20" d="M28.145,66.684a1.294,1.294,0,0,0-.648-1.127L16.755,59.375a1.263,1.263,0,0,0-.592-.17h-.111a1.268,1.268,0,0,0-.592.17L4.717,65.557a1.3,1.3,0,0,0-.65,1.127L4.09,83.329a.637.637,0,0,0,.324.56.622.622,0,0,0,.645,0l6.382-3.656a1.308,1.308,0,0,0,.65-1.126V71.331a1.3,1.3,0,0,1,.647-1.125l2.719-1.565a1.287,1.287,0,0,1,1.3,0l2.716,1.565a1.3,1.3,0,0,1,.65,1.125v7.776a1.31,1.31,0,0,0,.65,1.126l6.382,3.656a.629.629,0,0,0,.648,0,.648.648,0,0,0,.322-.56l.024-16.645" transform="translate(0 3.354)" fill="#242424"/>
  </g>
</svg>
