<svg xmlns="http://www.w3.org/2000/svg" width="123.329" height="62.5" viewBox="0 0 123.329 62.5">
  <path id="php" d="M64.57,33.039c-34.055,0-61.664,13.991-61.664,31.25s27.609,31.25,61.664,31.25,61.664-13.991,61.664-31.25S98.625,33.039,64.57,33.039ZM48.525,70.377a12.055,12.055,0,0,1-4.905,2.53c-1.8.586-4.09.465-6.875.465H30.434L28.684,83.466H21.315l6.576-34.317H42.062c4.263,0,7.373,1.226,9.328,3.464s2.543,5.414,1.763,9.424a14.843,14.843,0,0,1-4.629,8.34Zm21.51,3,2.908-14.555c.331-1.7.21-2.969-.364-3.588S70.78,54.2,68.909,54.2H63.065L59.3,73.373H51.988l6.576-33.308h7.312l-1.748,9.084H70.64c4.1,0,6.925.823,8.48,2.252s2.022,3.387,1.4,6.589L77.461,73.373ZM110.67,62.091a14.7,14.7,0,0,1-4.627,8.287,12.062,12.062,0,0,1-4.905,2.53c-1.8.586-4.091.465-6.876.465H87.951L86.2,83.466H78.833l6.575-34.317H99.58c4.263,0,7.373,1.226,9.327,3.464S111.449,58.082,110.67,62.091ZM96.787,54.2H91.74L88.987,68.326h4.483c2.969,0,5.184-.293,6.637-1.413a8.544,8.544,0,0,0,2.945-5.472c.489-2.514.266-4.475-.666-5.509s-2.8-1.737-5.6-1.737Zm-57.517,0H34.222L31.469,68.326h4.482c2.97,0,5.184-.293,6.638-1.413a8.543,8.543,0,0,0,2.944-5.472c.489-2.514.266-4.475-.666-5.509s-2.8-1.737-5.6-1.737Z" transform="translate(-2.906 -33.039)" fill="#242424"/>
</svg>
