<svg xmlns="http://www.w3.org/2000/svg" width="59.012" height="59.144" viewBox="0 0 59.012 59.144">
  <path id="ps" d="M59.645.721C42.68.716,25.791.717,8.825.717,6.4.717,3.93.715,1.5.722A1.221,1.221,0,0,0,1,.832V59.861H60.012V.832c0-.039-.194-.111-.367-.111ZM53.68,54.084q-22.931-.027-45.857-.014c-.738,0-.735,0-.735-.762V7.505c0-.753-.007-.568.739-.568h45.8c.767,0,.761-.185.761.6V30.415q0,11.465.017,22.93c0,.582-.135.74-.729.74ZM27.143,18.948c-3.123-.732-6.266-.371-9.407-.05-.666.068-.794.354-.792.945.02,7.122-.021,14.244-.021,21.366V41.6h4.215V33.23a15.624,15.624,0,0,0,6.58-.614c3.358-1.2,5.036-3.8,4.854-7.6C32.427,21.954,30.5,19.735,27.143,18.948Zm-.915,10.465a7.959,7.959,0,0,1-4.686.5.5.5,0,0,1-.317-.367c-.019-2.5-.014-4.993-.014-7.558a10.509,10.509,0,0,1,4.244.008,3.559,3.559,0,0,1,2.9,3.24,3.95,3.95,0,0,1-2.131,4.182Zm15.6,3.328c-.688-.377-1.443-.631-2.157-.962-.66-.306-1.327-.607-1.955-.972a1.331,1.331,0,0,1-.637-1.223A1.66,1.66,0,0,1,38.717,27.9a8.927,8.927,0,0,1,2.339.159,13.28,13.28,0,0,1,1.912.653l.828-2.936a9.977,9.977,0,0,0-4.817-.988A7.221,7.221,0,0,0,35.067,26c-2.221,1.512-3.305,5.53.024,7.688a23.763,23.763,0,0,0,2.74,1.331c.57.273,1.166.505,1.705.83a1.7,1.7,0,0,1,.793,1.845A1.528,1.528,0,0,1,39,39.045a7.436,7.436,0,0,1-2.4.067,30.832,30.832,0,0,1-3.266-.927c-.2.745-.389,1.568-.648,2.37-.142.439-.059.656.372.828a11.22,11.22,0,0,0,8,.336,4.869,4.869,0,0,0,.762-8.978Z" transform="translate(-1 -0.717)" fill="#242424" fill-rule="evenodd"/>
</svg>
