<svg xmlns="http://www.w3.org/2000/svg" width="152.5" height="23.333" viewBox="0 0 152.5 23.333">
  <defs>
    <style>
      .cls-1, .cls-2 {
        fill: #f9a825;
      }

      .cls-2 {
        fill-rule: evenodd;
      }
    </style>
  </defs>
  <g id="social_media" data-name="social media" transform="translate(-223.5 -646.67)">
    <g id="behance-plain" transform="translate(221.34 644.51)">
      <path id="Path_29" data-name="Path 29" class="cls-1" d="M28.285,42.432c0-1.332-.906-1.332-.906-1.332H23.66v2.855h3.489C27.752,43.955,28.285,43.761,28.285,42.432Z" transform="translate(-17.501 -31.698)"/>
      <path id="Path_30" data-name="Path 30" class="cls-1" d="M27.38,67.06H23.66v3.418h3.552c.534-.015,1.521-.186,1.521-1.663C28.728,67.049,27.38,67.06,27.38,67.06Z" transform="translate(-17.501 -52.83)"/>
      <path id="Path_31" data-name="Path 31" class="cls-1" d="M85.072,56.45a2.288,2.288,0,0,0-2.252,1.971h4.2A1.9,1.9,0,0,0,85.072,56.45Z" transform="translate(-65.659 -44.193)"/>
      <path id="Path_32" data-name="Path 32" class="cls-1" d="M22.448,2.16H4.873A2.713,2.713,0,0,0,2.16,4.873V22.447A2.713,2.713,0,0,0,4.873,25.16H22.447a2.713,2.713,0,0,0,2.713-2.713V4.873A2.713,2.713,0,0,0,22.448,2.16ZM16.611,7.881h5.278V9.458H16.611Zm-2.669,8.265c0,3.906-4.064,3.777-4.064,3.777H3.22V7.127H9.878c2.023,0,3.621,1.116,3.621,3.407a2.219,2.219,0,0,1-1.953,2.434C14.12,12.969,13.942,16.146,13.942,16.146Zm9.874-.208H17.195a2.087,2.087,0,0,0,2.252,2.232c2.126,0,2.046-1.376,2.046-1.376h2.248c0,3.653-4.378,3.4-4.378,3.4A4.538,4.538,0,0,1,14.448,15.3s0-4.915,4.915-4.915c5.18,0,4.454,5.55,4.454,5.55Z"/>
    </g>
    <g id="google-plain" transform="translate(254.249 645.923)">
      <path id="Path_33" data-name="Path 33" class="cls-1" d="M9.729,1.372A11.423,11.423,0,0,0,10.511,23.2a12.2,12.2,0,0,0,5.842.063,10.313,10.313,0,0,0,4.675-2.43,10.369,10.369,0,0,0,2.888-4.74,13.418,13.418,0,0,0,.291-6.062H13.462v4.457h6.222A5.365,5.365,0,0,1,17.4,18.009,6.528,6.528,0,0,1,14.885,19a7.454,7.454,0,0,1-2.726,0A6.708,6.708,0,0,1,9.622,17.9,7.094,7.094,0,0,1,7,14.389,6.916,6.916,0,0,1,7,9.943,7.085,7.085,0,0,1,8.662,7.252a6.71,6.71,0,0,1,6.76-1.765A6.188,6.188,0,0,1,17.885,6.93q1.052-1.047,2.1-2.1c.361-.377.755-.737,1.11-1.123a11.051,11.051,0,0,0-3.675-2.267,11.553,11.553,0,0,0-7.692-.069Z" transform="translate(0 0)"/>
    </g>
    <path id="linkedin-plain" class="cls-1" d="M24.61,3H4.721A1.7,1.7,0,0,0,3,4.682V24.651A1.7,1.7,0,0,0,4.721,26.33H24.61a1.708,1.708,0,0,0,1.721-1.685V4.677A1.708,1.708,0,0,0,24.61,3ZM9.917,22.888H6.454V11.745H9.917ZM8.2,10.226a1.1,1.1,0,1,0-.01,0ZM22.889,22.888H19.425V17.467c0-1.291-.023-2.953-1.8-2.953s-2.079,1.407-2.079,2.869v5.506H12.089V11.745h3.32v1.53h.046a3.638,3.638,0,0,1,3.276-1.8c3.507-.008,4.157,2.3,4.157,5.293Z" transform="translate(285 643.671)"/>
    <g id="slack-plain" transform="translate(319.11 642.68)">
      <path id="Path_34" data-name="Path 34" class="cls-1" d="M53.03,54.644l1.04,3L57.3,56.6l-1.04-3Z" transform="translate(-41.197 -39.964)"/>
      <path id="Path_35" data-name="Path 35" class="cls-1" d="M53.03,54.644l1.04,3L57.3,56.6l-1.04-3Z" transform="translate(-41.197 -39.964)"/>
      <path id="Path_36" data-name="Path 36" class="cls-1" d="M25.031,12.452c-2.491-8.018-6.086-9.889-14.384-7.488S.41,10.848,2.9,18.864s6.086,9.887,14.388,7.482S27.522,20.468,25.031,12.452Zm-4.2,5.2-1.555.506.542,1.555a1.2,1.2,0,0,1-.8,1.542,1.289,1.289,0,0,1-.43.062,1.248,1.248,0,0,1-1.155-.824l-.542-1.555-3.226,1.034.542,1.555a1.2,1.2,0,0,1-.789,1.53,1.289,1.289,0,0,1-.43.062,1.248,1.248,0,0,1-1.165-.817l-.542-1.555-1.555.506a1.291,1.291,0,0,1-.43.062,1.248,1.248,0,0,1-1.155-.824,1.2,1.2,0,0,1,.789-1.53l1.555-.506-1.03-3.01L7.9,15.953a1.289,1.289,0,0,1-.43.062,1.248,1.248,0,0,1-1.155-.824,1.2,1.2,0,0,1,.789-1.53l1.555-.506L8.122,11.6a1.2,1.2,0,0,1,.789-1.542,1.262,1.262,0,0,1,1.585.762l.542,1.555,3.228-1.044-.542-1.555a1.2,1.2,0,0,1,.789-1.53,1.262,1.262,0,0,1,1.592.764l.542,1.555L18.2,10.06a1.262,1.262,0,0,1,1.585.762A1.2,1.2,0,0,1,19,12.352l-1.555.506,1.04,3,1.555-.506a1.262,1.262,0,0,1,1.585.762,1.2,1.2,0,0,1-.789,1.54Z" transform="translate(0 0)"/>
    </g>
    <g id="github-original" transform="translate(350.388 643.234)">
      <path id="Path_37" data-name="Path 37" class="cls-2" d="M14.612,5.1a11,11,0,0,0-3.477,21.438c.55.1.751-.239.751-.529,0-.262-.01-1.129-.015-2.048-3.06.665-3.706-1.3-3.706-1.3a2.913,2.913,0,0,0-1.221-1.61c-1-.683.075-.669.075-.669a2.312,2.312,0,0,1,1.686,1.134,2.342,2.342,0,0,0,3.2.914,2.343,2.343,0,0,1,.7-1.471c-2.443-.278-5.012-1.221-5.012-5.436a4.258,4.258,0,0,1,1.134-2.953,3.95,3.95,0,0,1,.106-2.911s.924-.3,3.026,1.128a10.425,10.425,0,0,1,5.509,0c2.1-1.423,3.022-1.128,3.022-1.128a3.947,3.947,0,0,1,.108,2.911,4.249,4.249,0,0,1,1.132,2.953c0,4.225-2.573,5.155-5.023,5.427a2.629,2.629,0,0,1,.746,2.037c0,1.472-.013,2.656-.013,3.019,0,.293.2.636.756.528A11,11,0,0,0,14.612,5.1Z"/>
      <path id="Path_38" data-name="Path 38" class="cls-1" d="M25.16,90.97c-.024.055-.11.071-.189.034s-.125-.11-.1-.165.11-.072.189-.034.126.111.1.166Zm-.135-.1.581.6c-.052.049-.155.026-.224-.051a.168.168,0,0,1-.032-.228c.054-.048.154-.025.226.051s.086.179.031.229Zm-.1-.113.539.746c-.067.047-.178,0-.246-.095s-.067-.215,0-.262.177,0,.246.092.067.217,0,.264Zm0,0,.594.612c-.06.066-.189.049-.283-.042a.212.212,0,0,1-.062-.281c.061-.067.19-.048.285.042s.125.215.061.281Zm0,0,.82.355c-.027.086-.15.125-.275.089s-.206-.138-.18-.226.15-.128.275-.088S27.479,92.98,27.454,93.068Zm0,0,.9.066c0,.091-.1.166-.233.168s-.238-.07-.24-.16.1-.166.235-.168.238.07.238.16Zm0,0,.838-.142c.016.088-.075.179-.205.2s-.246-.031-.262-.119.077-.182.2-.205.247.031.263.121Zm0,0" transform="translate(-17.382 -70.074)"/>
    </g>
  </g>
</svg>
